<svg xmlns="http://www.w3.org/2000/svg" width="122.88" height="115.68" viewBox="0 0 122.88 115.68"><path d="M29.18,99.83a2.72,2.72,0,1,1-2.72,2.72A2.72,2.72,0,0,1,29.18,99.83ZM85.44,25.55a38.32,38.32,0,0,1,9,2.84c2.9,1.45,4.53,3.24,4.53,5.31,0,3.28-4.46,6-11.65,7.74l-1,.23V44.6a27,27,0,0,1-2.4,11.1A29.36,29.36,0,0,1,77,66.17l.19,3.09a13.45,13.45,0,0,0,3.68,3.56c3,1.6,6.91,1.93,11.05,2.35L86.7,93.87H38.44L31.8,75c4.66-.86,9.43-2.05,14-5.25h0c.25-.21.49-.42.73-.65l.17-4.51a22.9,22.9,0,0,1-5-9.21,40,40,0,0,1-1.52-12.23V42.1c-1.06-.21-2.07-.42-3-.66C30,39.7,25.51,37,25.51,33.7c0-2.07,1.63-3.87,4.54-5.31a39.38,39.38,0,0,1,9.37-2.94V16A15.49,15.49,0,0,1,44.37,4.68,17.21,17.21,0,0,1,56.24,0H69.73A16.11,16.11,0,0,1,80.82,4.38,14.48,14.48,0,0,1,85.44,14.9ZM50.3,43.47c-2.28-.2-4.45-.46-6.49-.76v.48a36.56,36.56,0,0,0,1.38,11.33,19.53,19.53,0,0,0,5.31,9c4,3.88,8.16,5.9,12.21,5.91s7.93-1.86,11.84-5.77a27.45,27.45,0,0,0,6-9.18A23.79,23.79,0,0,0,82.7,44.6V42.5a107.679,107.679,0,0,1-19,1.75,109.08,109.08,0,0,1-13.42-.78ZM39.43,29.24a34.21,34.21,0,0,0-7.59,2.41c-1.56.78-2.43,1.48-2.43,2.05,0,1.37,3.33,2.86,8.71,4.16,1.26.31,2.62.59,4.06.84h.39a120.319,120.319,0,0,0,19.66,1.5,107.37,107.37,0,0,0,24.1-2.41C91.71,36.56,95,35.07,95,33.7c0-.56-.87-1.27-2.42-2a32.63,32.63,0,0,0-7.18-2.34v2.27a1.89,1.89,0,0,1-1.62,1.83,93.34,93.34,0,0,1-21.39,2.47,95.709,95.709,0,0,1-21.52-2.51,1.85,1.85,0,0,1-1.48-1.79V29.24ZM69.73,3.7H56.24A13.27,13.27,0,0,0,47.1,7.3,11.88,11.88,0,0,0,43.31,16V30.13a91.59,91.59,0,0,0,19.12,2.08,89,89,0,0,0,19.12-2.07V14.9A10.89,10.89,0,0,0,78.08,7a12.12,12.12,0,0,0-8.35-3.3Zm4.84,64.64a18.82,18.82,0,0,1-11.88,4.51c-4.55,0-9.06-1.95-13.37-5.67-.16,17.76,24.82,19,25.25,1.16ZM94.76,99.83a2.74,2.74,0,1,1-.04,0ZM24.1,76.47c-8.58,2-16.1,6.17-20.34,24.78L0,115.65H20.4V97.84a4,4,0,0,1,4-4h4.24C28.43,87,25,79.73,24.1,76.47Zm79.44,39.18h19.34l-4-15.47c-3.7-16.66-11.19-21.8-19-23.77-.79,3.26-3.21,11-3.34,17.45h3a4,4,0,0,1,4,4v17.82Z" transform="translate(0 0)" fill="#072b90" fill-rule="evenodd"/></svg>