<svg id="Layer_1" data-name="Layer 1" xmlns="http://www.w3.org/2000/svg" viewBox="0 0 69.35 122.88"><defs><style>.cls-1{fill:#fff;}.cls-1,.cls-2,.cls-3,.cls-4,.cls-5,.cls-6{fill-rule:evenodd;}.cls-2{fill:#d8453e;}.cls-3{fill:#d39645;}.cls-4{fill:#966538;}.cls-5{fill:#ffcb00;}.cls-6{fill:#262626;}</style></defs><title>online-food-order</title><polygon class="cls-1" points="0.9 13.26 68.46 13.26 68.46 106.22 0.9 106.22 0.9 13.26 0.9 13.26"/><path class="cls-2" d="M19.8,59.05H49.56a4.06,4.06,0,0,1,4,4.05v8.72a4.06,4.06,0,0,1-4,4.05H34.41V71.56a2.74,2.74,0,0,0-2.73-2.73h-.5a2.73,2.73,0,0,0-2.73,2.73v4.31H19.8a4.07,4.07,0,0,1-4.05-4.05V63.1a4.06,4.06,0,0,1,4.05-4.05Z"/><path class="cls-3" d="M51.5,32.92H18a3.89,3.89,0,0,1-3.88-3.87h0c0-5.52,11-9.53,20.22-9.62,18.17-.19,26.32,13.49,17.19,13.49Z"/><path class="cls-4" d="M43.76,24a2.08,2.08,0,1,1-2.08,2.08A2.08,2.08,0,0,1,43.76,24Zm-18.17.14a2.09,2.09,0,1,1-2.08,2.09,2.09,2.09,0,0,1,2.08-2.09Zm9-2a2.09,2.09,0,1,1-2.08,2.09,2.08,2.08,0,0,1,2.08-2.09Z"/><path class="cls-5" d="M15.76,44.82q18.75,0,37.51,0a1.37,1.37,0,0,1,1.35,1.36c0,2-.84,6-5.41,6H19.82c-4.57,0-5.41-3.95-5.41-6a1.35,1.35,0,0,1,1.35-1.36Zm38.77-6.59a.59.59,0,0,1,.09.32V39a.59.59,0,0,1-.09.31c-.3,1.35-1.54,3.11-5.32,3.11H19.82c-3.78,0-5-1.76-5.32-3.11a.59.59,0,0,1-.09-.31v-.45a.62.62,0,0,1,.09-.32c.31-1.34,1.54-3.1,5.32-3.1H35l5.61,5.79,5.58-5.79h3c3.79,0,5,1.76,5.32,3.1Z"/><path class="cls-6" d="M13.28,0h42.8A13.26,13.26,0,0,1,69.35,13.28V109.6a13.26,13.26,0,0,1-13.27,13.28H13.28A13.28,13.28,0,0,1,0,109.6V13.26A13.25,13.25,0,0,1,13.28,0ZM24.43,104.44l-6.67-9.53,0,0A15.28,15.28,0,0,1,16,92a8.73,8.73,0,0,1-.72-2.7,5.75,5.75,0,0,1,.39-2.64A3.08,3.08,0,0,1,17.44,85a3.92,3.92,0,0,1,2.26-.16,6.31,6.31,0,0,1,2.73,1.35c.66.56,1.8,1.48,2.91,2.39l.91.75V72.86c0-3,1.32-4.9,3-5.75a4.83,4.83,0,0,1,4.36,0c1.71.85,3.06,2.78,3.06,5.7v6.08l0,0a.88.88,0,0,1,.29,0H38.5a1,1,0,0,1,.25,0,3.75,3.75,0,0,1,3.36,3.08,1.28,1.28,0,0,1,.47-.1h1.55a1,1,0,0,1,.25,0,3.82,3.82,0,0,1,3.44,3.43h1.73a1,1,0,0,1,.25,0C54.06,86,54,90.21,54,93.61v.89l.1,3.93v.13a13.07,13.07,0,0,1-1.75,5.88H65.89v-90H3.44v90h21Zm1.79-12.3a1.51,1.51,0,0,1-.17-.1c-.71-.56-1.51-1.19-2.17-1.75L21,87.89A4.29,4.29,0,0,0,19.23,87a2,2,0,0,0-1,0,1.05,1.05,0,0,0-.53.53,3.65,3.65,0,0,0-.2,1.58,6.58,6.58,0,0,0,.54,2,11.6,11.6,0,0,0,1.43,2.41.27.27,0,0,1,.06.1l7.56,10.82H49.7a12.49,12.49,0,0,0,2.08-6l-.08-3.82a.92.92,0,0,1,0-.16s0-.42,0-.9c0-2.53.06-5.65-2.25-6H47.94c0,.71,0,1.45-.09,2.14s-.09,1.22-.09,1.81a1.12,1.12,0,0,1-2.23,0c0-.58,0-1.26.09-2,.14-2.39.32-5.12-1.58-5.46H42.56a1,1,0,0,1-.24,0c0,.86,0,1.75-.09,2.61,0,.62-.09,1.23-.09,1.8a1.12,1.12,0,1,1-2.23,0c0-.57,0-1.26.08-2,.15-2.39.33-5.11-1.57-5.45H36.94a1,1,0,0,1-.3,0v4.35a1.12,1.12,0,1,1-2.23,0V72.79c0-2-.79-3.19-1.82-3.69a2.61,2.61,0,0,0-2.35,0c-1,.51-1.79,1.75-1.79,3.76V94.23a1.12,1.12,0,1,1-2.24,0V92.15h0Zm8.44,16.45a5.46,5.46,0,1,1-5.46,5.46,5.45,5.45,0,0,1,5.46-5.46Z"/><path class="cls-6" d="M.9,13.26H68.46v93H.9v-93Zm23.53,91.18-6.67-9.53,0,0A15.28,15.28,0,0,1,16,92a8.73,8.73,0,0,1-.72-2.7,5.75,5.75,0,0,1,.39-2.64A3.08,3.08,0,0,1,17.44,85a3.92,3.92,0,0,1,2.26-.16,6.31,6.31,0,0,1,2.73,1.35c.66.56,1.8,1.48,2.91,2.39l.91.75V72.86c0-3,1.32-4.9,3-5.75a4.83,4.83,0,0,1,4.36,0c1.71.85,3.06,2.78,3.06,5.7v6.08l0,0a.88.88,0,0,1,.29,0H38.5a1,1,0,0,1,.25,0,3.75,3.75,0,0,1,3.36,3.08,1.28,1.28,0,0,1,.47-.1h1.55a1,1,0,0,1,.25,0,3.82,3.82,0,0,1,3.44,3.43h1.73a1,1,0,0,1,.25,0C54.06,86,54,90.21,54,93.61v.89l.1,3.93v.13a13.07,13.07,0,0,1-1.75,5.88H65.89v-90H3.44v90h21Zm1.79-12.3a1.51,1.51,0,0,1-.17-.1c-.71-.56-1.51-1.19-2.17-1.75L21,87.89A4.29,4.29,0,0,0,19.23,87a2,2,0,0,0-1,0,1.05,1.05,0,0,0-.53.53,3.65,3.65,0,0,0-.2,1.58,6.58,6.58,0,0,0,.54,2,11.6,11.6,0,0,0,1.43,2.41.27.27,0,0,1,.06.1l7.56,10.82H49.7a12.49,12.49,0,0,0,2.08-6l-.08-3.82a.92.92,0,0,1,0-.16s0-.42,0-.9c0-2.53.06-5.65-2.25-6H47.94c0,.71,0,1.45-.09,2.14s-.09,1.22-.09,1.81a1.12,1.12,0,0,1-2.23,0c0-.58,0-1.26.09-2,.14-2.39.32-5.12-1.58-5.46H42.56a1,1,0,0,1-.24,0c0,.86,0,1.75-.09,2.61,0,.62-.09,1.23-.09,1.8a1.12,1.12,0,1,1-2.23,0c0-.57,0-1.26.08-2,.15-2.39.33-5.11-1.57-5.45H36.94a1,1,0,0,1-.3,0v4.35a1.12,1.12,0,1,1-2.23,0V72.79c0-2-.79-3.19-1.82-3.69a2.61,2.61,0,0,0-2.35,0c-1,.51-1.79,1.75-1.79,3.76V94.23a1.12,1.12,0,1,1-2.24,0V92.15h0Z"/></svg>