<svg xmlns="http://www.w3.org/2000/svg" width="97.04" height="122.89" viewBox="0 0 97.04 122.89"><path d="M48.68,40.62a31.752,31.752,0,1,1-22.45,9.3,31.635,31.635,0,0,1,22.45-9.3ZM22.36,9.8a6.89,6.89,0,1,1-6.89,6.89A6.89,6.89,0,0,1,22.36,9.8Zm36.96,4.9a2.22,2.22,0,1,1-2.22,2.22,2.221,2.221,0,0,1,2.22-2.22Zm9.61,0a2.22,2.22,0,1,1-2.22,2.22,2.221,2.221,0,0,1,2.22-2.22Zm9.6,0a2.22,2.22,0,1,1-2.22,2.22,2.221,2.221,0,0,1,2.22-2.22ZM4.44,28.42H92.27V6.07a1.639,1.639,0,0,0-1.63-1.63H6.07A1.639,1.639,0,0,0,4.44,6.07V28.42Zm92.27,1.05a2.239,2.239,0,0,1,0,2.34v85.01a6.077,6.077,0,0,1-6.07,6.07H6.07A6.077,6.077,0,0,1,0,116.81V6.07A6.077,6.077,0,0,1,6.07,0H90.64a6.077,6.077,0,0,1,6.07,6.07v23.4Zm-4.44,3.39H4.44v83.95a1.639,1.639,0,0,0,1.63,1.63H90.64a1.639,1.639,0,0,0,1.63-1.63V32.86ZM23.53,74.3a1.97,1.97,0,0,1,1.75-3.53c.43.21,1.07.55,1.72.89,3.7,1.95,8.34,4.38,12.24,2.31,12.99-6.93,14.55-5.06,17.08-2.02a7.245,7.245,0,0,0,5.5,2.9,8.505,8.505,0,0,0,3.85-.74,47.3,47.3,0,0,0,6.57-3.28,1.962,1.962,0,0,1,1.96,3.4,51.516,51.516,0,0,1-7.14,3.56,12.149,12.149,0,0,1-5.71.97c-4.96-.61-6.66-2.65-8.04-4.3-1.26-1.51-2.04-2.45-12.2,2.98-5.74,3.06-11.4.08-15.92-2.29-.53-.27-1.02-.53-1.66-.85Zm44.8-21.6a27.788,27.788,0,1,0,8.14,19.65A27.707,27.707,0,0,0,68.33,52.7Z" fill="#072b90"/></svg>